<mxfile host="app.diagrams.net" modified="2023-09-11T20:02:03.638Z" agent="Mozilla/5.0 (Windows NT 10.0; Win64; x64) AppleWebKit/537.36 (KHTML, like Gecko) Chrome/116.0.0.0 Safari/537.36" etag="2Xc8o6sbk7bmS6iWMIAz" version="21.7.4" type="github">
  <diagram id="R2lEEEUBdFMjLlhIrx00" name="Page-1">
    <mxGraphModel dx="794" dy="422" grid="1" gridSize="10" guides="1" tooltips="1" connect="1" arrows="1" fold="1" page="1" pageScale="1" pageWidth="850" pageHeight="1100" math="0" shadow="0" extFonts="Permanent Marker^https://fonts.googleapis.com/css?family=Permanent+Marker">
      <root>
        <mxCell id="0" />
        <mxCell id="1" parent="0" />
        <mxCell id="9705ezCTAjk8PmJOCNoQ-6" style="edgeStyle=orthogonalEdgeStyle;rounded=0;orthogonalLoop=1;jettySize=auto;html=1;entryX=0;entryY=0.5;entryDx=0;entryDy=0;" edge="1" parent="1" source="9705ezCTAjk8PmJOCNoQ-1" target="9705ezCTAjk8PmJOCNoQ-2">
          <mxGeometry relative="1" as="geometry" />
        </mxCell>
        <mxCell id="9705ezCTAjk8PmJOCNoQ-1" value="NODE.JS CRUD API&amp;nbsp;" style="whiteSpace=wrap;html=1;aspect=fixed;" vertex="1" parent="1">
          <mxGeometry x="130" y="250" width="240" height="240" as="geometry" />
        </mxCell>
        <mxCell id="9705ezCTAjk8PmJOCNoQ-7" style="edgeStyle=orthogonalEdgeStyle;rounded=0;orthogonalLoop=1;jettySize=auto;html=1;exitX=0;exitY=0.25;exitDx=0;exitDy=0;entryX=0.4;entryY=-0.003;entryDx=0;entryDy=0;entryPerimeter=0;" edge="1" parent="1" source="9705ezCTAjk8PmJOCNoQ-2" target="9705ezCTAjk8PmJOCNoQ-1">
          <mxGeometry relative="1" as="geometry" />
        </mxCell>
        <mxCell id="9705ezCTAjk8PmJOCNoQ-2" value="MONGO DB" style="whiteSpace=wrap;html=1;aspect=fixed;" vertex="1" parent="1">
          <mxGeometry x="510" y="10" width="200" height="200" as="geometry" />
        </mxCell>
        <mxCell id="9705ezCTAjk8PmJOCNoQ-9" value="PERSON MODEL" style="rounded=0;whiteSpace=wrap;html=1;" vertex="1" parent="1">
          <mxGeometry x="280" y="270" width="80" height="40" as="geometry" />
        </mxCell>
        <mxCell id="9705ezCTAjk8PmJOCNoQ-10" value="PERSON DATA" style="rounded=0;whiteSpace=wrap;html=1;" vertex="1" parent="1">
          <mxGeometry x="520" y="20" width="90" height="60" as="geometry" />
        </mxCell>
        <mxCell id="9705ezCTAjk8PmJOCNoQ-11" value="PERSON MODEL" style="rounded=0;whiteSpace=wrap;html=1;" vertex="1" parent="1">
          <mxGeometry x="120" y="620" width="620" height="210" as="geometry" />
        </mxCell>
        <mxCell id="9705ezCTAjk8PmJOCNoQ-12" value="PERSON SCHEMA" style="rounded=0;whiteSpace=wrap;html=1;" vertex="1" parent="1">
          <mxGeometry x="590" y="640" width="130" height="60" as="geometry" />
        </mxCell>
        <mxCell id="9705ezCTAjk8PmJOCNoQ-13" value="Actor" style="shape=umlActor;verticalLabelPosition=bottom;verticalAlign=top;html=1;outlineConnect=0;" vertex="1" parent="1">
          <mxGeometry x="440" y="420" width="50" height="100" as="geometry" />
        </mxCell>
        <mxCell id="9705ezCTAjk8PmJOCNoQ-15" value="CREATE USER" style="ellipse;whiteSpace=wrap;html=1;" vertex="1" parent="1">
          <mxGeometry x="650" y="320" width="110" height="70" as="geometry" />
        </mxCell>
        <mxCell id="9705ezCTAjk8PmJOCNoQ-19" value="" style="endArrow=classic;html=1;rounded=0;entryX=-0.018;entryY=0.638;entryDx=0;entryDy=0;entryPerimeter=0;" edge="1" parent="1" target="9705ezCTAjk8PmJOCNoQ-15">
          <mxGeometry width="50" height="50" relative="1" as="geometry">
            <mxPoint x="510" y="440" as="sourcePoint" />
            <mxPoint x="640" y="380" as="targetPoint" />
          </mxGeometry>
        </mxCell>
        <mxCell id="9705ezCTAjk8PmJOCNoQ-21" value="READ USER" style="ellipse;whiteSpace=wrap;html=1;" vertex="1" parent="1">
          <mxGeometry x="650" y="410" width="110" height="60" as="geometry" />
        </mxCell>
        <mxCell id="9705ezCTAjk8PmJOCNoQ-23" value="UPDATE USER" style="rounded=1;whiteSpace=wrap;html=1;" vertex="1" parent="1">
          <mxGeometry x="650" y="490" width="110" height="40" as="geometry" />
        </mxCell>
        <mxCell id="9705ezCTAjk8PmJOCNoQ-24" value="DELETE USER" style="rounded=1;whiteSpace=wrap;html=1;" vertex="1" parent="1">
          <mxGeometry x="650" y="550" width="110" height="40" as="geometry" />
        </mxCell>
        <mxCell id="9705ezCTAjk8PmJOCNoQ-25" value="" style="endArrow=classic;html=1;rounded=0;entryX=-0.024;entryY=0.633;entryDx=0;entryDy=0;entryPerimeter=0;" edge="1" parent="1" target="9705ezCTAjk8PmJOCNoQ-21">
          <mxGeometry width="50" height="50" relative="1" as="geometry">
            <mxPoint x="520" y="470" as="sourcePoint" />
            <mxPoint x="560" y="460" as="targetPoint" />
          </mxGeometry>
        </mxCell>
        <mxCell id="9705ezCTAjk8PmJOCNoQ-26" value="" style="endArrow=classic;html=1;rounded=0;entryX=0;entryY=0.5;entryDx=0;entryDy=0;" edge="1" parent="1" target="9705ezCTAjk8PmJOCNoQ-23">
          <mxGeometry width="50" height="50" relative="1" as="geometry">
            <mxPoint x="520" y="490" as="sourcePoint" />
            <mxPoint x="560" y="460" as="targetPoint" />
          </mxGeometry>
        </mxCell>
        <mxCell id="9705ezCTAjk8PmJOCNoQ-27" value="" style="endArrow=classic;html=1;rounded=0;entryX=0;entryY=0.5;entryDx=0;entryDy=0;" edge="1" parent="1" target="9705ezCTAjk8PmJOCNoQ-24">
          <mxGeometry width="50" height="50" relative="1" as="geometry">
            <mxPoint x="510" y="510" as="sourcePoint" />
            <mxPoint x="560" y="460" as="targetPoint" />
          </mxGeometry>
        </mxCell>
      </root>
    </mxGraphModel>
  </diagram>
</mxfile>
